<svg width="300" height="300" viewBox="0 0 300 300" fill="none" xmlns="http://www.w3.org/2000/svg">
<path d="M91.667 81.0811H104.546C118.353 81.0811 129.546 92.274 129.546 106.081V281.061C129.546 291.521 121.066 300 110.606 300C100.146 300 91.667 291.521 91.667 281.061V81.0811Z" fill="black"/>
<path fill-rule="evenodd" clip-rule="evenodd" d="M241.543 155.99C230.054 160.065 217.739 162.162 205.304 162.162L205.304 129.999C212.686 129.969 219.991 128.819 226.813 126.613C233.729 124.376 240.012 121.098 245.305 116.966C250.598 112.834 254.797 107.928 257.661 102.529C260.526 97.1304 262 91.3438 262 85.5C262 79.6562 260.526 73.8696 257.661 68.4706C254.797 63.0716 250.598 58.166 245.305 54.0337C240.012 49.9015 233.729 46.6237 226.813 44.3874C219.991 42.1813 212.686 41.0313 205.304 41.0006L205.304 0C217.739 0 230.054 2.09722 241.543 6.17193C253.032 10.2466 263.471 16.219 272.265 23.7481C281.058 31.2772 288.033 40.2155 292.792 50.0527C297.551 59.8899 300.001 70.4334 300.001 81.0811C300.001 91.7288 297.551 102.272 292.792 112.109C288.033 121.947 281.058 130.885 272.265 138.414C263.471 145.943 253.032 151.916 241.543 155.99Z" fill="black"/>
<path d="M167.999 155C167.999 141.193 179.192 130 192.999 130H205.999V221H187.999C176.953 221 167.999 212.046 167.999 201V155Z" fill="black"/>
<path d="M197 181H280C291.046 181 300 189.954 300 201C300 212.046 291.046 221 280 221H197V181Z" fill="black"/>
<path fill-rule="evenodd" clip-rule="evenodd" d="M0 121.622L36.4163 81.0811H95.9995V121.622H0Z" fill="black"/>
<path fill-rule="evenodd" clip-rule="evenodd" d="M89.4592 0H59.6556L23.292 41H53.0955L89.4592 0ZM63.7553 41H111.42L147.784 0H100.119L63.7553 41ZM36.4163 0H51.6608L15.2972 41H0L36.4163 0ZM124.745 41H206.059V0H161.109L124.745 41Z" fill="url(#paint0_linear_101_166)"/>
<defs>
<linearGradient id="paint0_linear_101_166" x1="206" y1="41" x2="1.5098e-07" y2="-7.58583e-07" gradientUnits="userSpaceOnUse">
<stop/>
<stop offset="0.505208"/>
<stop offset="1" stop-opacity="0"/>
</linearGradient>
</defs>
</svg>